<svg width="54" height="64" viewBox="0 0 54 64" fill="none" xmlns="http://www.w3.org/2000/svg">
<path fill-rule="evenodd" clip-rule="evenodd" d="M39.2434 49.9845C49.5321 50.1173 55.8615 42.5464 52.3801 34.5773C48.8986 26.608 45.4279 24.815 39.9628 19.0373C34.495 13.2596 26.5443 3.26496 26.5819 0.907471C26.6221 3.26496 18.9989 13.2596 13.5311 19.0373C8.06596 24.815 4.59793 26.608 1.11378 34.5773C-2.36768 42.5464 3.96444 50.1173 14.2505 49.9845C21.3127 49.8932 24.4908 45.2336 25.7873 42.3204L25.7873 46.1331C25.7873 46.1331 23.5326 59.8862 7.62038 61.3918L5.08377 61.3918L5.08377 63.5349L48.4128 63.5349L48.4128 61.3918L45.8735 61.3918C29.964 59.8862 27.7065 46.1331 27.7065 46.1331L27.7065 42.821C29.2339 45.7374 32.5731 49.8983 39.2434 49.9845Z" fill="#1A1919"/>
</svg>
