<svg width="0" height="0" class="hidden">
  <symbol fill="none" xmlns="http://www.w3.org/2000/svg" viewBox="0 0 59 61" id="Carreau">
    <path fill-rule="evenodd" clip-rule="evenodd" d="M0.230957 30.6278L29.5047 60.831L58.7783 30.6278L29.5047 0.424927L0.230957 30.6278Z" fill="#F24822"></path>
  </symbol>
<svg width="0" height="0" class="hidden">
  <symbol fill="none" xmlns="http://www.w3.org/2000/svg" viewBox="0 0 56 62" id="Coeur">
    <path fill-rule="evenodd" clip-rule="evenodd" d="M40.7568 0.400853C30.0663 0.507557 27.8756 12.6661 27.8756 12.6661C27.8756 12.6661 25.4745 0.482812 14.7857 0.260894C4.09677 0.0387144 -2.53219 9.37734 1.03287 19.2644C4.59767 29.1511 8.19063 31.3908 13.8325 38.5752C19.4742 45.7599 27.6716 58.1799 27.6146 61.0987C27.5894 58.1795 35.578 45.8467 41.297 38.7233C47.016 31.6001 50.6329 29.3992 54.3041 19.5514C57.9752 9.70341 51.4476 0.293889 40.7568 0.400853Z" fill="#F24822"></path>
  </symbol>
  <svg width="0" height="0" class="hidden">
  <symbol fill="none" xmlns="http://www.w3.org/2000/svg" viewBox="0 0 54 64" id="Pique">
    <path fill-rule="evenodd" clip-rule="evenodd" d="M39.2434 49.9845C49.5321 50.1173 55.8615 42.5464 52.3801 34.5773C48.8986 26.608 45.4279 24.815 39.9628 19.0373C34.495 13.2596 26.5443 3.26496 26.5819 0.907471C26.6221 3.26496 18.9989 13.2596 13.5311 19.0373C8.06596 24.815 4.59793 26.608 1.11378 34.5773C-2.36768 42.5464 3.96444 50.1173 14.2505 49.9845C21.3127 49.8932 24.4908 45.2336 25.7873 42.3204L25.7873 46.1331C25.7873 46.1331 23.5326 59.8862 7.62038 61.3918L5.08377 61.3918L5.08377 63.5349L48.4128 63.5349L48.4128 61.3918L45.8735 61.3918C29.964 59.8862 27.7065 46.1331 27.7065 46.1331L27.7065 42.821C29.2339 45.7374 32.5731 49.8983 39.2434 49.9845Z" fill="#1A1919"></path>
  </symbol>
</svg>